<?xml version="1.0" encoding="UTF-8"?>
<svg xmlns="http://www.w3.org/2000/svg" viewBox="0 0 640 480" role="img" aria-labelledby="gstConsoleTitle">
  <title id="gstConsoleTitle">IG E-Sign GST lookup console with GSTIN details, filing preferences, and return status</title>
  <defs>
    <linearGradient id="gstGlow" x1="0%" y1="0%" x2="100%" y2="100%">
      <stop offset="0%" stop-color="#ff6600" stop-opacity="0.18"/>
      <stop offset="100%" stop-color="#3b82f6" stop-opacity="0.12"/>
    </linearGradient>
  </defs>
  <rect width="640" height="480" rx="16" fill="#0a0f2e"/>

  <rect x="40" y="36" width="560" height="408" rx="14" fill="#121a3d" stroke="rgba(255,255,255,0.08)"/>
  <circle cx="64" cy="58" r="5" fill="#f87171"/>
  <circle cx="82" cy="58" r="5" fill="#fbbf24"/>
  <circle cx="100" cy="58" r="5" fill="#4ade80"/>
  <text x="320" y="62" text-anchor="middle" fill="#f0f1f5" font-family="Inter, system-ui, sans-serif" font-size="13" font-weight="700">GST Services</text>

  <rect x="60" y="82" width="150" height="54" rx="10" fill="rgba(255,255,255,0.03)" stroke="rgba(255,255,255,0.06)"/>
  <text x="76" y="102" fill="#8b8fa8" font-family="Inter, system-ui, sans-serif" font-size="10">Lookups remaining</text>
  <text x="76" y="124" fill="#f0f1f5" font-family="Inter, system-ui, sans-serif" font-size="18" font-weight="800">48</text>

  <rect x="222" y="82" width="196" height="54" rx="10" fill="rgba(255,255,255,0.03)" stroke="rgba(255,255,255,0.06)"/>
  <text x="238" y="102" fill="#8b8fa8" font-family="Inter, system-ui, sans-serif" font-size="10">Your GSTIN</text>
  <text x="238" y="124" fill="#ff6600" font-family="JetBrains Mono, monospace" font-size="12" font-weight="600">33AAUPP8709M3ZS</text>

  <rect x="430" y="82" width="150" height="54" rx="10" fill="rgba(34,211,165,0.08)" stroke="rgba(34,211,165,0.28)"/>
  <text x="446" y="102" fill="#8b8fa8" font-family="Inter, system-ui, sans-serif" font-size="10">GST network</text>
  <rect x="446" y="110" width="72" height="20" rx="10" fill="rgba(34,211,165,0.18)"/>
  <text x="482" y="124" text-anchor="middle" fill="#4ade80" font-family="Inter, system-ui, sans-serif" font-size="10" font-weight="700">Connected</text>

  <rect x="60" y="152" width="520" height="36" rx="10" fill="rgba(255,255,255,0.03)"/>
  <rect x="68" y="158" width="118" height="24" rx="8" fill="#ff6600"/>
  <text x="127" y="174" text-anchor="middle" fill="#020626" font-family="Inter, system-ui, sans-serif" font-size="11" font-weight="700">GSTIN details</text>
  <text x="248" y="174" text-anchor="middle" fill="#8b8fa8" font-family="Inter, system-ui, sans-serif" font-size="11">Filing preferences</text>
  <text x="388" y="174" text-anchor="middle" fill="#8b8fa8" font-family="Inter, system-ui, sans-serif" font-size="11">Return status</text>

  <rect x="60" y="200" width="520" height="224" rx="12" fill="url(#gstGlow)" stroke="rgba(255,102,0,0.22)"/>

  <text x="84" y="232" fill="#f0f1f5" font-family="Inter, system-ui, sans-serif" font-size="15" font-weight="700">Look up taxpayer details</text>
  <text x="84" y="252" fill="#8b8fa8" font-family="Inter, system-ui, sans-serif" font-size="11">Registration status and business information on the GST network.</text>

  <text x="84" y="284" fill="#8b8fa8" font-family="Inter, system-ui, sans-serif" font-size="10">GSTIN</text>
  <rect x="84" y="292" width="280" height="34" rx="8" fill="#0a0f2e" stroke="rgba(255,255,255,0.1)"/>
  <text x="98" y="314" fill="#f0f1f5" font-family="JetBrains Mono, monospace" font-size="12">33AAUPP8709M3ZS</text>
  <rect x="376" y="292" width="96" height="34" rx="8" fill="#ff6600"/>
  <text x="424" y="314" text-anchor="middle" fill="#020626" font-family="Inter, system-ui, sans-serif" font-size="11" font-weight="700">Look up</text>

  <rect x="84" y="342" width="388" height="66" rx="10" fill="rgba(255,255,255,0.04)" stroke="rgba(34,211,165,0.25)"/>
  <circle cx="108" cy="368" r="10" fill="#22d3a5"/>
  <path d="M103 368 L106 371 L114 363" fill="none" stroke="#020626" stroke-width="2" stroke-linecap="round"/>
  <text x="128" y="362" fill="#f0f1f5" font-family="Inter, system-ui, sans-serif" font-size="12" font-weight="700">Acme Components Pvt Ltd</text>
  <text x="128" y="380" fill="#8b8fa8" font-family="Inter, system-ui, sans-serif" font-size="10">Status: Active - Maharashtra - Regular taxpayer</text>
  <text x="128" y="396" fill="#8b8fa8" font-family="Inter, system-ui, sans-serif" font-size="10">GSTR-1 filed - GSTR-3B pending review</text>

  <text x="320" y="452" text-anchor="middle" fill="#8b8fa8" font-family="Inter, system-ui, sans-serif" font-size="12">Portal console and integrations - one company profile</text>
</svg>
